HIERARCHY
ROOT root
{
	OFFSET 0.000000 0.000000 0.000000
	CHANNELS 6 Xposition Yposition Zposition Zrotation Yrotation Xrotation
	JOINT lhip
	{
		OFFSET 0.058581 -0.082280 -0.017664
		CHANNELS 3 Zrotation Yrotation Xrotation
		JOINT lknee
		{
			OFFSET 0.043451 -0.386469 0.008037
			CHANNELS 3 Zrotation Yrotation Xrotation
			JOINT lankle
			{
				OFFSET -0.014790 -0.426874 -0.037428
				CHANNELS 3 Zrotation Yrotation Xrotation
				JOINT ltoe
				{
					OFFSET 0.041054 -0.060286 0.122042
					CHANNELS 3 Zrotation Yrotation Xrotation
					End Site
					{
						OFFSET 0.000000 0.000000 0.000000
					}
				}
			}
		}
	}
	JOINT rhip
	{
		OFFSET -0.060310 -0.090513 -0.013543
		CHANNELS 3 Zrotation Yrotation Xrotation
		JOINT rknee
		{
			OFFSET -0.043257 -0.383688 -0.004843
			CHANNELS 3 Zrotation Yrotation Xrotation
			JOINT rankle
			{
				OFFSET 0.019056 -0.420046 -0.034562
				CHANNELS 3 Zrotation Yrotation Xrotation
				JOINT rtoe
				{
					OFFSET -0.034840 -0.062106 0.130323
					CHANNELS 3 Zrotation Yrotation Xrotation
					End Site
					{
						OFFSET 0.000000 0.000000 0.000000
					}
				}
			}
		}
	}
	JOINT lowerback
	{
		OFFSET 0.004439 0.124404 -0.038385
		CHANNELS 3 Zrotation Yrotation Xrotation
		JOINT upperback
		{
			OFFSET 0.004488 0.137956 0.026820
			CHANNELS 3 Zrotation Yrotation Xrotation
			JOINT chest
			{
				OFFSET -0.002265 0.056032 0.002855
				CHANNELS 3 Zrotation Yrotation Xrotation
				JOINT lowerneck
				{
					OFFSET -0.013390 0.211636 -0.033468
					CHANNELS 3 Zrotation Yrotation Xrotation
					JOINT upperneck
					{
						OFFSET 0.010113 0.088937 0.050410
						CHANNELS 3 Zrotation Yrotation Xrotation
						End Site
						{
							OFFSET 0.000000 0.000000 0.000000
						}
					}
				}
				JOINT lclavicle
				{
					OFFSET 0.071702 0.114000 -0.018898
					CHANNELS 3 Zrotation Yrotation Xrotation
					JOINT lshoulder
					{
						OFFSET 0.122921 0.045205 -0.019046
						CHANNELS 3 Zrotation Yrotation Xrotation
						JOINT lelbow
						{
							OFFSET 0.255332 -0.015649 -0.022946
							CHANNELS 3 Zrotation Yrotation Xrotation
							JOINT lwrist
							{
								OFFSET 0.265709 0.012698 -0.007375
								CHANNELS 3 Zrotation Yrotation Xrotation
								End Site
								{
									OFFSET 0.000000 0.000000 0.000000
								}
							}
						}
					}
				}
				JOINT rclavicle
				{
					OFFSET -0.082954 0.112472 -0.023707
					CHANNELS 3 Zrotation Yrotation Xrotation
					JOINT rshoulder
					{
						OFFSET -0.113228 0.046853 -0.008472
						CHANNELS 3 Zrotation Yrotation Xrotation
						JOINT relbow
						{
							OFFSET -0.260127 -0.014369 -0.031269
							CHANNELS 3 Zrotation Yrotation Xrotation
							JOINT rwrist
							{
								OFFSET -0.269108 0.006794 -0.006027
								CHANNELS 3 Zrotation Yrotation Xrotation
								End Site
								{
									OFFSET 0.000000 0.000000 0.000000
								}
							}
						}
					}
				}
			}
		}
	}
}
MOTION
Frames: 10
Frame Time: 0.033333
0.207678 0.329891 0.864693 -113.402804 2.661024 122.901671 3.247362 6.280469 -7.461030 -9.956053 -19.241497 29.630162 -18.183857 3.659893 24.430910 0.000000 -0.000000 0.000000 -11.860812 -4.299809 -80.195369 -3.263718 -27.670228 61.872420 2.666089 -0.923198 -21.875985 0.000000 -0.000000 0.000000 7.384325 -13.719103 71.075882 0.308400 2.123838 8.310490 6.527020 0.390472 -10.181359 -13.781957 4.572240 -14.431735 3.472506 -1.363798 -31.571671 -18.104842 -47.764453 5.379186 -26.017738 -12.744344 2.604562 5.691267 -15.423214 -14.713867 -17.494019 -11.193673 3.505498 15.538069 50.429182 11.191806 21.552367 9.567541 -2.472273 -2.417666 27.383117 2.144434 3.187271 8.657106 11.900016 
0.086980 0.370472 0.852586 -113.978606 4.407815 120.344811 2.307715 2.780668 2.807852 -4.036074 -17.209084 30.957485 -8.905687 10.840945 22.661257 0.000000 -0.000000 0.000000 -11.227571 -4.013249 -79.022000 0.345080 -30.222412 52.374735 3.295308 -2.756824 -15.785909 0.000000 -0.000000 0.000000 6.926814 -13.360927 66.833572 0.703116 3.418926 7.750552 7.146420 -0.320465 -8.714785 -12.764997 1.816104 -12.055124 3.317795 2.152028 -30.356693 -23.071155 -39.667662 8.001570 -37.208460 -11.503659 6.415297 9.702976 -20.899802 -12.845770 -8.564147 -8.664682 4.201210 20.037604 43.259258 12.255283 29.503272 6.254644 3.354969 -2.382738 32.954811 6.149231 2.371083 8.397257 17.002718 
-0.028549 0.411921 0.838174 -113.830324 5.627712 118.749161 0.823693 -0.433342 2.267285 -6.922692 -14.778318 51.576031 -4.621098 12.343176 16.420604 0.000000 -0.000000 0.000000 -10.166382 -2.612499 -76.853217 -2.232205 -29.882934 58.435636 -4.232105 -9.251611 -18.886150 0.000000 -0.000000 0.000000 7.557040 -13.008632 62.110031 0.903034 4.515156 4.794443 6.299990 -0.971964 -5.528771 -11.290527 0.265898 -14.076352 2.798822 3.255952 -28.584004 -23.435283 -31.723889 8.051063 -46.173481 -9.133805 9.214606 9.553610 -26.810988 -8.865222 0.608983 -11.291413 -5.775193 21.704420 35.688286 12.170572 36.831545 1.684316 7.604775 -1.712467 35.982488 11.412373 1.875244 9.249171 16.802735 
-0.139711 0.451519 0.832312 -112.331483 6.379417 118.994602 1.234096 -1.630816 -7.294354 -12.049832 -9.305819 75.839075 -5.210088 8.232631 10.991377 0.000000 -0.000000 0.000000 -9.193871 -1.737132 -73.004828 -5.084416 -27.554552 67.052044 -6.807258 -13.481675 -24.667683 0.000000 -0.000000 0.000000 9.036246 -12.810135 57.120258 1.606364 4.766288 2.564815 4.893356 -1.081298 -3.800761 -10.285243 0.049401 -18.632200 1.068609 2.366894 -26.899076 -24.047976 -24.967906 7.579538 -50.597277 -4.746770 9.543901 8.705327 -31.452515 -0.354024 -0.722218 -12.270507 -5.221917 24.176926 29.115149 12.601348 39.963884 -2.923498 8.573159 0.563313 36.496903 16.908179 3.544860 9.097018 16.445082 
-0.247217 0.493275 0.841182 -112.234282 6.974705 119.886102 2.718375 -2.955233 -21.440638 -11.303326 -0.081599 92.110207 -1.243910 8.723032 2.640276 0.000000 -0.000000 0.000000 -7.162504 0.412945 -65.865685 -4.639563 -24.248961 67.553318 -6.241878 -16.762418 -30.126716 0.000000 -0.000000 0.000000 8.175643 -9.955244 53.522713 2.316563 3.783972 1.007938 4.372875 -0.907044 -3.774715 -9.232337 0.087875 -23.276086 0.149171 2.482739 -25.447456 -26.479705 -18.449792 7.465969 -50.114589 0.925991 8.009977 7.665948 -35.840525 4.612462 -2.336519 -9.218275 -2.537722 27.952715 23.573845 12.937425 41.033570 -5.999635 8.890904 0.156982 34.853599 17.740526 4.672581 7.945339 17.214288 
-0.358007 0.535079 0.863249 -113.767132 7.143741 119.274799 4.675950 -3.723637 -35.263314 -8.060908 7.930611 98.411907 2.833418 9.879104 -7.506561 0.000000 -0.000000 0.000000 -4.768961 2.489163 -55.026697 -2.795000 -19.255512 63.280956 -3.822651 -17.987386 -30.976278 0.000000 -0.000000 0.000000 5.672629 -5.386872 51.236819 2.570031 2.066089 0.570996 3.891951 -0.457413 -3.927952 -7.976336 0.211275 -26.704545 0.658332 2.767173 -24.666332 -28.244205 -13.087492 7.492574 -47.850580 4.844825 7.229685 5.680851 -39.298698 4.715610 3.216414 -8.887197 -7.554419 30.503039 18.597892 12.545197 43.586582 -8.127361 9.182264 -4.468128 33.053039 9.916478 3.234176 7.898877 12.849129 
-0.477286 0.573793 0.892554 -114.896962 7.524367 117.359761 7.022380 -3.533606 -46.713182 -5.730476 13.495687 95.009095 3.090402 8.175809 -16.215891 0.000000 -0.000000 0.000000 -2.573657 2.268063 -41.600854 -1.402721 -14.331493 56.759707 0.318814 -15.717133 -26.112000 0.000000 -0.000000 0.000000 4.010182 -1.303964 49.107573 2.379601 0.278979 0.926402 3.599366 0.203448 -3.689188 -7.157054 -0.365641 -27.019980 2.035430 3.210394 -24.735749 -28.531363 -9.250867 7.096372 -47.720804 7.599729 6.320499 5.064551 -42.833972 4.930862 5.691110 -9.686965 -10.574733 30.149207 14.681113 11.472094 46.897317 -9.960754 8.262296 -7.440758 32.417726 2.607463 2.336081 7.959405 7.365095 
-0.604715 0.610076 0.923589 -115.344099 7.589011 115.062515 8.695765 -3.576418 -54.326689 -5.639896 17.578002 82.510157 2.564585 5.534906 -20.906248 0.000000 -0.000000 0.000000 -2.178182 -0.768920 -27.725087 -1.230634 -10.629984 48.396583 5.655855 -11.793849 -13.301858 0.000000 -0.000000 0.000000 2.775916 2.844801 46.122538 2.447419 -1.696586 1.801261 4.171411 0.804753 -3.056230 -6.937925 -2.086131 -24.207741 3.833329 4.359289 -24.825322 -27.653829 -6.837920 6.679961 -50.496432 9.116175 5.561738 5.371314 -45.797609 5.584153 5.647649 -9.767303 -11.237216 27.712272 11.947938 9.930889 49.596107 -11.351151 7.278324 -8.376235 31.953740 0.251099 3.887148 7.978239 7.259113 
-0.737973 0.644890 0.950301 -115.054824 7.598384 112.747967 9.551230 -4.175721 -57.232134 -7.254808 19.298154 62.926840 1.999702 3.925752 -21.885516 0.000000 -0.000000 0.000000 -3.948887 -5.429190 -14.280068 -2.174736 -8.689449 38.065993 9.920517 -9.328952 7.338491 0.000000 -0.000000 0.000000 2.084631 6.362295 42.961000 2.442847 -3.274074 2.096760 5.133726 1.281176 -2.229105 -7.401717 -4.472579 -19.489320 5.737175 6.065288 -24.852697 -25.803001 -5.013390 6.851474 -54.750976 9.144457 5.522131 5.305998 -48.624309 6.818946 7.011601 -10.556096 -14.641306 24.241550 10.022340 8.561371 52.086724 -11.665360 6.632331 -9.254608 29.828704 -0.546134 5.162488 8.317241 8.443154 
-0.872509 0.678826 0.965377 -115.083434 8.406260 110.757099 9.932139 -4.823898 -56.506722 -8.221022 17.746739 39.992248 1.330544 4.558162 -20.004973 0.000000 -0.000000 0.000000 -6.683457 -8.154254 -2.844599 -2.983968 -6.556163 30.501082 10.543214 -9.761621 15.116855 0.000000 -0.000000 0.000000 1.852503 8.893450 39.038920 1.899857 -3.417574 2.257068 5.691297 1.414157 -1.444305 -7.694868 -5.364255 -14.675634 6.701820 7.070983 -25.021566 -23.513599 -2.809481 7.210912 -58.909311 8.817344 6.072757 5.756519 -52.588009 10.569307 9.629215 -10.794114 -18.001288 20.891307 8.477882 7.669264 54.327320 -10.645313 5.319142 -10.097584 26.405378 -2.061640 4.849793 8.297557 6.027940 
